<svg xmlns:dc="http://purl.org/dc/elements/1.1/" xmlns:cc="http://creativecommons.org/ns#" xmlns:rdf="http://www.w3.org/1999/02/22-rdf-syntax-ns#" xmlns:svg="http://www.w3.org/2000/svg" xmlns="http://www.w3.org/2000/svg" viewBox="0 0 762 762" fill="none"><metadata><rdf:RDF><cc:Work><dc:format>image/svg+xml</dc:format><dc:type rdf:resource="http://purl.org/dc/dcmitype/StillImage"/><dc:title>Adventurer</dc:title><dc:creator><cc:Agent><dc:title>Lisa Wischofsky</dc:title></cc:Agent></dc:creator><dc:source>https://www.instagram.com/lischis_adventures/</dc:source><cc:license rdf:resource="https://creativecommons.org/licenses/by/4.0/"/></cc:Work><cc:License rdf:about="https://creativecommons.org/licenses/by/4.0/"><cc:permits rdf:resource="https://creativecommons.org/ns#Reproduction"/><cc:permits rdf:resource="https://creativecommons.org/ns#Distribution"/><cc:permits rdf:resource="https://creativecommons.org/ns#DerivativeWorks"/><cc:requires rdf:resource="https://creativecommons.org/ns#Notice"/><cc:requires rdf:resource="https://creativecommons.org/ns#Attribution"/></cc:License></rdf:RDF></metadata><mask id="avatarsRadiusMask"><rect width="762" height="762" rx="0" ry="0" x="0" y="0" fill="#fff"/></mask><g mask="url(#avatarsRadiusMask)"><path d="M396.01 164.85c37.82 4.9 74.21 19.64 104.8 42.39 6.15 4.84 12.48 9.33 18.02 14.92 23.77 21.98 42.73 49.02 55.13 78.95 9.35 22.31 14.72 46.04 16.64 70.14 6.62.81 13.05 2.14 19.12 5 15.54 6.93 27.08 20.94 31.78 37.21 2.63 9.56 3.56 19.75 1.72 29.55-2.96 18.76-13.72 36.13-29.37 46.92-10.94 7.65-24.49 12.03-37.86 11.68-5.13-.05-10.04-1.6-15.13-1.79-1.85 2.17-3.23 4.84-4.76 7.25-18.66 29.62-44.57 54.51-74.64 72.4-28.1 16.73-59.9 27.16-92.46 30.32-11.08.7-21.87 2.05-32.98.74-51.69-2.3-102.07-23.44-140.15-58.43-29.03-26.55-50.84-60.83-62.54-98.39-7.09-22.85-10.62-46.78-10.07-70.71.52-40.34 12.53-80.58 33.94-114.76 19.1-30.81 45.91-56.58 77.2-74.83 29.63-17.28 63.35-27.68 97.59-29.87 14.66-1.47 29.44-.37 44.02 1.31Z" fill="#000"/><path d="M363 169.06c48.47-1.39 97.32 14.7 135.81 44.12 6.55 4.06 11.72 9.49 17.36 14.64 24.33 22.63 43.2 50.95 54.93 82.02 7.43 19.61 11.86 40.2 13.56 61.09-8.89.74-17.34 2.34-25.38 6.38-2.19 1.03-1.89 4.95.68 5.23 2.35.23 4.98-1.51 7.24-2.2 14.62-5.37 31.32-4.35 44.78 3.68 11.69 6.78 20.09 18.16 23.89 31.06 2.6 8.25 2.68 17.41 1.76 25.95-2.5 17.35-12.35 33.73-26.73 43.81-15.71 11.33-37.17 14.64-54.93 6.2-3.17-1.43-5.94-3.58-9.08-5.05-2.95-1.09-4.88 2.79-2.7 4.75 3.17 2.76 7.34 4.52 11 6.56-20.14 34.15-49.45 62.7-84.41 81.47-30.2 16.31-64.44 25.53-98.78 26.15-27.63.72-55.33-4.04-81.21-13.72-30.32-11.24-57.84-29.43-80.37-52.6-22.67-23.37-39.92-51.88-50.2-82.77-14.96-44.64-14.91-94.01.27-138.59 11.05-33.06 30.28-63.21 55.37-87.39 29.67-28.73 67.65-48.54 108.13-56.67 12.8-2.52 25.94-4.24 39.01-4.12Z" fill="rgba(236, 173, 128, 1)"/><path d="M605.03 404.4c2.63-.1 3.44 3.8 1.36 4.98-3.69 1.83-7.82 2.77-11.64 4.35-5.82 2.04-11.28 4.76-16.68 7.72 4.29 2.34 8.86 4.74 12.71 7.76 2.58 2.09 4.85 4.35 5.33 7.8-.26 3.59-2.73 6.55-5.45 8.69-5.86 4.66-13.92 7.18-20.79 10.26-1.75.62-4.43 1.99-5.59-.26-1.02-1.74-.06-3.11 1.57-3.87 6.65-3.3 14.86-5.62 20.79-10.16 1.37-1.14 3.39-2.74 3.61-4.62-4.07-5.63-12.42-8.59-18.23-12.09-2.34-1.72-2.29-4.24-.16-6.13 7.27-5.64 16.98-9.26 25.57-12.38 2.42-.83 5.03-1.95 7.6-2.05Z" fill="#000"/><g transform="translate(-161 -83)"><path d="M556 424.07c13.55-.19 27.11 3.92 38.21 11.72 12.22 8.47 21.42 21.42 25.55 35.69 2.03 8.44 3.26 17.76 1.73 26.36-.34 2.67-3.16 3.58-5.48 3.72-22.92 1.12-45.41 3.72-68.02 6.37-13.15.92-26.15 2.81-39.22 4.54-4.57.55-8.58 1.7-13.07-.02-4.71-13.26-5.45-27.76-1.52-41.31 4.07-14.31 13.26-27 25.49-35.44 10.66-7.48 23.33-11.44 36.33-11.63Z" fill="#000"/><path d="M566.19 430.48c15.3 2.42 29.57 11.04 38.69 23.59 7.72 10.54 11.98 23.86 11.49 36.93-.16 1.36.18 3.47-.67 4.57-4.17.71-8.49.77-12.7 1.15-18.38 1.14-36.61 3.35-54.88 5.53 1.29-3.37 2.51-6.57 2.63-10.23.4-9.56-5.03-18.91-13.67-23.11-7.93-4.1-18.77-3.16-25.87 2.3-6.37 4.73-10.35 12.82-9.79 20.79 0 6.01 2.59 11.23 6.37 15.74-2.44.23-4.87.49-7.3.75-4.9-14.14-4.17-29.43 1.85-43.11 6.19-14.28 18.15-25.86 32.69-31.45 9.91-4.07 20.61-4.84 31.16-3.45Z" fill="#fff"/><path d="M415.92 455.07c10.32 6.33 18.32 16.17 22.55 27.5 4.04 10.78 4.5 23.3 1.31 34.35-3.96 1.23-7.72.76-11.78.75-25.4-.28-50.64-.3-76 1.43-5.57-.31-13.01 1.8-17.82-1.36-1.63-6.9-2.98-13.6-2.05-20.72 1.12-12.32 6.31-24.08 14.86-33.04 8.4-8.92 19.86-14.85 31.99-16.6 12.69-1.87 26.06.89 36.94 7.69Z" fill="#000"/><path d="M410.45 458.52c18.96 10.09 29.6 32.88 24.63 53.87-1.89.03-3.78.06-5.67.13 2.5-4.85 3.78-10.11 2.82-15.56-1.25-8.23-7.5-15.16-15.39-17.62-4.61-1.26-9.55-1.12-14.05.47-8.31 3.06-14.47 11.22-14.46 20.19-.29 4.37 1.04 8.24 2.82 12.14-15.41.07-30.77 1.03-46.16 1.93-1.75-.18-5.82.57-6.13-1.89-4.43-18.71 3.54-39.05 19.11-50.22 15.11-11.12 36.05-12.55 52.48-3.44Z" fill="#fff"/></g><g transform="translate(-161 -83)"><g fill="#000"><path d="M530.96 352.34c21.47-3.31 42.8 3.14 60.6 15.09 12.06 8.19 22.9 19.68 28.97 33.03 1.1 2.96-.3 3.73-2.51 5.27-3.95-2.26-6.87-5.58-10.47-8.29-12.99-9.78-28.03-16.38-43.78-20.25-14.93-3.51-30.56-5.05-45.8-2.8-4.78.41-9.28 1.92-13.97 2.67-2.41.2-5.1-1.21-4.21-4.04 1.9-4.15 4.23-8.5 7.6-11.65 6.04-5.62 15.64-7.85 23.57-9.03ZM383 428.83c13.38-.82 26.33-.61 39.03 4.23 5.85 2.37 11.52 5.91 13.93 12.05 1.38 4.31.91 8.87-1.73 12.61-4.9-.76-9.4-2.6-14.18-3.82-23.13-6.33-47.19-8.01-71.04-5.96-4.88.33-9.86 2.03-14.72 1.78-1.78-.48-1.17-2.2-.97-3.54.88-2.51 3.58-3.86 5.76-5.09 13.75-7.25 28.55-10.65 43.92-12.26Z"/></g></g><g transform="translate(-161 -83)"><path d="M526 559.6c18.01-.01 37.23 2.15 53.99 9.09-52.2 7.17-107.15 15.07-158.98 22.2 8.03-6.99 17.68-12.32 27.44-16.47 12.23-5.1 26.26-9.18 39.59-7.43.98.15 1.86.04 2.63-.34 10.24-5.91 23.77-6.7 35.33-7.05Z" fill="#D31E1E"/><path d="M579.989 568.69c2.42 1 1.92 3.4 1.38 5.45-6.78 13.35-16.08 25.18-28.35 33.9-17.19 12.49-38.88 18.4-60.02 17.58-26.81-.96-53.07-12.04-73.44-29.31-.4-2.42-.49-3.71 1.45-5.42 51.83-7.13 106.78-15.03 158.98-22.2Z" fill="#000"/><path d="M581.371 574.14c-1.11 4.61-1.85 9.19-3.65 13.62-5.36 13.94-16.05 25.4-28.38 33.56-13.59 8.87-29.26 14.15-45.36 15.89-19.66 2.09-40.79-1.09-58.01-11.18-11.76-6.82-21.37-16.99-26.41-29.72 20.37 17.27 46.63 28.35 73.44 29.31 21.14.82 42.83-5.09 60.02-17.58 12.27-8.72 21.57-20.55 28.35-33.9Z" fill="#D31E1E"/><path d="M573.86 575.51c-8.17 15.05-20.98 27.46-36.37 34.99-12.46 6.12-26.6 9.44-40.49 9.19-24.71.18-49.01-9.01-68.58-23.87 47.93-6.59 97.73-13.8 145.44-20.31Z" fill="#fff"/></g><g transform="translate(-161 -83)"/><g transform="translate(-161 -83)"><path d="M727.98 184.92c7.79-.32 15.89 1.3 22.48 5.62 5.44 3.48 9.86 8.83 12.01 14.93.45 1.78.69 4-1.48 4.68-4.24.58-8.66-1.02-13-.57-12.51.94-24.54 5.99-33.1 15.32-8.73 9.29-14.48 21.37-16.48 33.93-1.23 7.63-.21 16.85 4.29 23.32 11.52 7.65 22.52 15.33 33.83 23.28 15.83 11.33 29.47 25.11 38.68 42.41 7.55 13.92 12.38 29.7 15.55 45.18 4.28 20.07 5.88 40.48 5.95 60.98-.43 6.46-.29 13.14-1.35 19.51-1.39 2.34-5.81 3.7-8.39 4.02-2.67-.93-4.69-3.88-6.96-5.56-16.4-13.66-42.44-16.26-60.52-4.47-3.95 2.39-5.72 6.4-9.43 9.13-4.83-3.09-7.4-7.77-11.52-12.16-6.57-7.61-14.25-13.9-21.56-20.72-4.1 5.63-9.16 10.34-14.68 14.54-3.58 2.68-7.85 5.08-12.28 5.88-2.22-.43-2.86-2.02-2.01-4.04 6.3-14.28 10.42-30.98 8.02-46.59-1.14-11.41-4.84-22.49-10.73-32.32-.49 5.09-1.32 10.05-3.27 14.81-4.2 10.61-10.98 20.94-20.21 27.83-2.41 1.7-5.7 3.81-8.77 3.31-2.7-1.8-3.14-5.3-4.18-8.14-5.69-16.96-14.51-32.45-21.2-49.16-1.66 15.6-1.37 31.88 2.31 47.19.27 1.46-.4 2.74-2.04 2.58-10.87.74-21.93 1.01-32.77-.37-1.99-.21-3.77-.98-5.53-1.88-10.59-4.82-18.67-15.67-24.81-25.23-6.97-12.25-13.34-25.25-16.94-38.92-.55 18.72 1.59 37.23 7.73 54.98 1.84 5.09 4.07 10.44 7.34 14.79.79 1.23 2.06 2.53 2.26 4.01-.48 1.96-2.4 3.24-4.38 3.33-9.58.89-19.22 1.43-28.83 1.88-13.23.19-25.63.62-38.59-2.64-2.28-.66-4.39-1.14-6.02-3.02-5.98-6.63-10.22-14.33-13.43-22.62-7.9-20.57-10.94-42.92-8.36-64.83-8.33 20.93-14.24 44.29-11.21 66.91.3 3.82 1.91 7.2 2.66 10.89-1.24 2.65-3.89 2.92-5.94.95-15.18-13.51-25.78-32.74-31.54-52.07-3.76 6.41-6.88 13.22-9.67 20.11-3.08 8.24-5.76 16.27-5.87 25.17-.08 2.87-2.62 3.46-5.03 3.46-13.6.06-27.67-2.36-40.04-8.15-.86 3.93-1.68 7.86-2.72 11.74-2.45 8.76-3.47 17.9-4.97 26.84-.68 3.9-.23 8.12-1.33 11.91-.63 2.81-4.83 2.33-6.21.37-11.11-11.94-15.56-29.26-14.96-45.25.26-9.78 1.42-19.83 4.17-29.25-6.22-11.24-9.76-23.85-9.54-36.75-.6-15.65 4.66-31.64 12.61-44.99 11.45-18.9 27.92-33.41 45.92-45.89-16.32 7.27-31.39 16.02-44.21 28.61-2.11 1.99-3.54 4.43-5.34 6.66-2.07 1.28-4.09-.05-4.27-2.38-.69-6.92-.38-14.1.43-21 1.97-15.62 10.71-29.78 22-40.45 10.12-9.72 22.52-16.27 35.97-20.06 16.69-4.64 34.2-6.82 51.49-7.36 32.66-1.38 64.12 3.11 95.96 9.83 5.13.73 11.08 3.24 15.98.99 10.29-3.78 21.17-6.17 32.06-7.34 47.11-5.33 95.75 12.37 130.71 43.88-1.74-7.66-.41-15.29 2.16-22.59 8.27-21.41 30.06-37.86 53.1-38.99Z" fill="#000"/><path d="M740.799 192.28c6.46 2.05 11.401 6.17 14.901 11.94-9.88-1.26-20.28.96-29.25 5.11-14.9 7.11-26.01 21.91-30.89 37.45-2.61 8.7-4.291 17.4-2.141 26.43 1.24 5.4 3.521 11.86 8.541 14.86 7.66 4.96 14.929 10.39 22.399 15.61 14.42 10.14 27.791 20.3 38.161 34.8 15.93 21.65 22.62 50.32 26.11 76.53 1.86 15 2.71 30.05 2.15 45.16-.11 4.09-.27 8.09-1.54 12.02-4.2-3.39-7.98-7.04-12.75-9.69-16.53-9.75-37.5-11.08-54.941-2.91-4.32 2.58-8.279 5.71-11.609 9.5-4.93-5.75-9.81-11.49-15.37-16.66-4.63-4.51-9.82-8.35-14.36-12.95 2.68-4.78 5.03-10.03 6-15.46.27-2.27.58-5.34-1.07-7.17-1.12-.98-2.35-.93-3.68-.44-1.18 2.3-.44 5.3-1.19 7.81-2.84 13.22-13.41 24.56-24.31 31.96 3.6-10.54 6.48-20.93 6.47-32.18.12-19.47-6.201-38.79-18.581-53.91-1.75-1.16-4.169-.41-4.199 1.92.34 7.96-.31 15.75-3.38 23.18-4.18 10.12-10.9 20.48-20.43 26.3-6.3-20.23-17.04-38.19-24.33-57.98-.87-1.9-1.86-5.21-4.5-4.97-2.69-.25-3.37 2.26-3.98 4.31-2.2 10.4-1.97 20.38-1.72 30.94.57 6.83 1.049 13.81 2.659 20.48-9.11.7-17.96 1-27.06-.12-5.44-1.84-10.879-5.03-14.899-9.18-7.81-8.01-13.75-17.4-18.49-27.5-5.36-10.73-9.831-21.67-11.471-33.64-1-4.61-.529-9.55-1.809-14.04-.71-2.57-4.54-2.48-5.29-.04-1.72 7.91-2.26 16.17-2.97 24.23-.37 14.68 1.16 29.79 4.8 44.03 2.41 9.43 5.66 18.55 10.81 26.86-8.18.88-16.42.83-24.6 1.72-13.18.41-27.941 1-40.691-2.82-2.17-2.91-4.439-5.65-6.389-8.72-4.04-6.24-6.88-13.49-9.16-20.55-6.95-22.32-8.851-45.74-2.641-68.48.63-2.9 2.511-5.66-.049-8.17-2.4-.62-3.05.16-4.39 1.94-5.53 8.31-9.82 17.55-13.07 26.97-6.73 19.38-10.69 40.82-7.34 61.26-10.27-11.28-17.92-25.05-22.77-39.48-4.9-15.23-7.53-31.68-4.21-47.53.1-1.75.81-3.2-.93-4.35-1.89-1.43-4.05-.02-4.46 2.11-2.9 12.77-1.851 26.4.659 39.15-5.09 7.87-9.029 16.53-12.509 25.21-3.1 8.19-5.73 17-6.28 25.78-12.12-.31-24.48-1.98-35.62-7-9.13-4.34-17.57-11.25-23.42-19.51-9.12-13.5-11.97-30.46-10.15-46.45 2.09-15.48 8.74-29.76 18.3-42.03 14.88-19.22 33.76-32.16 54.03-45.02 1.89-1.24 4.5-2.23 5.85-4.09.69-2.46-.78-3.05-2.49-4.26-26.69 8.09-51.89 19.88-71.79 39.88-.27-11.88 2.04-23.61 8.29-33.83 9.34-15.68 24.46-27.46 41.78-33.11 17.09-5.6 35.51-7.8 53.42-8.61 31.63-1.42 62.07 2.85 93.03 8.81 5.94.97 12.01 2.61 18.03 2.75 2.71-.52 5.319-1.66 7.949-2.49 23.64-7.61 48.72-8.26 73.01-3.46 30.17 6 58.431 20.72 81.171 41.37 2.5 2.36 4.85 4.8 7.78 6.65 1.17-.61 2.429-1.18 3.489-1.97 1.04-2.71-1.679-5.88-2.349-8.55-2.52-8.37-1-17.64 2.67-25.46 5.88-12.57 17.059-22.68 29.799-28.02 9.41-3.75 19.41-5.48 29.26-2.23ZM296.86 388.42c5.01 5.84 10.64 10.96 17.17 15.07-1.04 7.72-3.8 14.91-5.21 22.53-1.49 7.86-2.86 15.78-3.85 23.72-4.45-6.05-7.34-13.28-9.02-20.57-2.71-12.16-1.79-25.16.29-37.36.21-1.13.41-2.26.62-3.39Z" fill="rgba(203, 104, 32, 1)"/><path d="M719.91 576.45c3.94-.14 8.21 1.66 12.07 2.57 2.48.29 3.12 3.82 1.39 5.33-4.51 4.33-9.96 7.8-15.61 10.44-2.77 1.37-5.4.9-8.35.75-1.14-4.56 3.18-7.23 5.05-11.04 1.75-2.37 2.95-6.6 5.45-8.05Z" fill="#000"/><path d="M722.28 582.11c1.47.18 2.93.52 4.38.82-2.57 2.17-5.3 3.98-8.26 5.58 1.18-2.15 2.36-4.48 3.88-6.4Z" fill="rgba(203, 104, 32, 1)"/></g></g></svg>